# xmcd
#
# Track frame offsets: 
#        150
#        15687
#        29989
#        48305
#        64785
#        85295
#        100151
#        121726
#        137817
#        153092
#        173756
#        191477
#        212030
#        229125
#        243867
#        259548
#        277608
#        299070
#        320301
#        339426
#
# Disc length: 4804 seconds
#
# Revision: 0
# Processed by: cddbd v1.4PL0 Copyright (c) Steve Scherf et al.
# Submitted via: ExactAudioCopy v0.90b3
#
DISCID=1612c214
DTITLE=Michael Bolton - Only A Woman Like You
DYEAR=2002
DGENRE=Soul
TTITLE0=Dance With Me
TTITLE1=I Wanna Hear You Say It
TTITLE2=Only A Woman Like You
TTITLE3=All That You Deserve
TTITLE4=Love With My Eyes Closed
TTITLE5=To Feel Again
TTITLE6=The Center Of My Heart
TTITLE7=This Is The Way
TTITLE8=Simply
TTITLE9=Slowly
TTITLE10=I Surrender
TTITLE11=Sexual Healing
TTITLE12=Tired Of Being Alone
TTITLE13=My Girl
TTITLE14=Ain't No Sunshine
TTITLE15=(What A) Wonderful World
TTITLE16=Like A Rolling Stone
TTITLE17=Try A Little Tendernes
TTITLE18=What You Won't Do For Love
TTITLE19=Whiter Shade Of Pale
EXTD=
EXTT0=
EXTT1=
EXTT2=
EXTT3=
EXTT4=
EXTT5=
EXTT6=
EXTT7=
EXTT8=
EXTT9=
EXTT10=
EXTT11=
EXTT12=
EXTT13=
EXTT14=
EXTT15=
EXTT16=
EXTT17=
EXTT18=
EXTT19=
PLAYORDER=
